<?xml version="1.0" encoding="utf-8"?>
<!-- Generator: Adobe Illustrator 20.0.0, SVG Export Plug-In . SVG Version: 6.00 Build 0)  -->
<svg version="1.1" id="Layer_1" xmlns="http://www.w3.org/2000/svg" xmlns:xlink="http://www.w3.org/1999/xlink" x="0px" y="0px"
	 viewBox="0 0 72.5 40.8" style="enable-background:new 0 0 72.5 40.8;" xml:space="preserve">
<style type="text/css">
	.st0{fill:none;}
	.st1{fill:#43B7E8;}
	.st2{fill:#FFFFFF;}
</style>
<path class="st0" d="M31.2,26.4L31.2,26.4c0-0.2-0.2-0.4-0.5-0.4h-0.8v0.8h0.7C31,26.8,31.2,26.7,31.2,26.4z"/>
<path class="st0" d="M43.8,32.2L43.8,32.2c0-0.4-0.3-0.7-0.9-0.7h-1.1V33h1.1C43.4,33,43.8,32.7,43.8,32.2z"/>
<path class="st0" d="M37.3,15.7L37.3,15.7c0-0.9-0.7-1.5-2.1-1.5h-3.3v2.9h3.4C36.6,17.1,37.3,16.7,37.3,15.7z"/>
<path class="st0" d="M30.8,27.5h-0.9v0.8h0.9c0.3,0,0.6-0.1,0.6-0.4v0C31.4,27.6,31.2,27.5,30.8,27.5z"/>
<path class="st0" d="M34.7,37.2c-0.8,0-1.4,0.7-1.4,1.5v0c0,0.8,0.6,1.5,1.4,1.5s1.4-0.7,1.4-1.5v0C36.1,37.9,35.5,37.2,34.7,37.2z"
	/>
<path class="st0" d="M41.8,37.3h-0.8v2.8h0.8c0.9,0,1.5-0.6,1.5-1.4v0C43.2,37.9,42.7,37.3,41.8,37.3z"/>
<path class="st0" d="M36.6,10.5L36.6,10.5c0-0.9-0.7-1.4-1.9-1.4h-2.8v2.8h2.6C35.8,11.9,36.6,11.5,36.6,10.5z"/>
<path class="st0" d="M42.2,26.4L42.2,26.4c0-0.2-0.2-0.4-0.5-0.4h-0.8v0.8h0.7C41.9,26.8,42.2,26.7,42.2,26.4z"/>
<path class="st0" d="M15,2.5H2.4v5.5H15c2.4,0,4.5,0.9,6.1,2.6c0.1-0.5,0.2-1,0.2-1.5c0-0.9-0.2-1.9-0.5-2.8
	C20.2,5.1,18.7,2.5,15,2.5z"/>
<path class="st0" d="M42.4,27.9L42.4,27.9c0-0.3-0.2-0.4-0.6-0.4h-0.9v0.8h0.9C42.1,28.3,42.4,28.1,42.4,27.9z"/>
<path class="st0" d="M50.1,10.5L50.1,10.5c0-0.9-0.7-1.4-1.9-1.4h-2.8v2.8H48C49.3,11.9,50.1,11.5,50.1,10.5z"/>
<path class="st0" d="M50.8,15.7L50.8,15.7c0-0.9-0.7-1.5-2.1-1.5h-3.3v2.9h3.4C50,17.1,50.8,16.7,50.8,15.7z"/>
<path class="st0" d="M15,17.7H2.4v5.5H15c3.7,0,5.3-2.7,5.8-3.8c0.3-0.8,0.5-1.8,0.5-2.7c0-0.5-0.1-1-0.2-1.6
	C19.5,16.8,17.4,17.7,15,17.7z"/>
<path class="st0" d="M20.2,12.8c-0.8-1.2-2.4-2.7-5.2-2.7H2.4v5.5H15C17.8,15.6,19.3,14.1,20.2,12.8z"/>
<path class="st0" d="M59.1,31.4c-0.8,0-1.4,0.7-1.4,1.5v0c0,0.8,0.6,1.5,1.4,1.5c0.8,0,1.4-0.7,1.4-1.5v0
	C60.5,32.1,59.9,31.4,59.1,31.4z"/>
<polygon class="st0" points="49.7,33.4 51.4,33.4 50.6,31.6 "/>
<polygon class="st0" points="66.5,33.4 68.1,33.4 67.3,31.6 "/>
<path class="st1" d="M23.4,9.1c0-1.1-0.2-2.5-0.6-3.6l0,0c-1.4-3.2-4.3-5.1-7.7-5.1H1.5c-0.7,0-1.3,0.6-1.3,1.3v22.5
	c0,0.7,0.6,1.3,1.3,1.3H15c3.5,0,6.4-1.9,7.7-5.2c0.4-1,0.6-2.4,0.6-3.5c0-1.1-0.2-2.5-0.6-3.6l0-0.1c0-0.1-0.1-0.2-0.1-0.3
	c0-0.1,0.1-0.2,0.1-0.3C23.1,11.5,23.4,10.2,23.4,9.1z M2.4,10.1H15c2.8,0,4.3,1.5,5.2,2.7c-0.8,1.2-2.4,2.7-5.2,2.7H2.4V10.1z
	 M20.7,19.4c-0.5,1.2-2,3.8-5.8,3.8H2.4v-5.5H15c2.4,0,4.5-0.9,6.1-2.6c0.1,0.5,0.2,1.1,0.2,1.6C21.2,17.5,21,18.6,20.7,19.4z
	 M21.1,10.5c-1.5-1.7-3.7-2.6-6.1-2.6H2.4V2.5H15c3.7,0,5.2,2.6,5.7,3.8c0.3,0.8,0.5,1.9,0.5,2.8C21.2,9.5,21.2,10,21.1,10.5z"/>
<path class="st2" d="M40.2,16.1L40.2,16.1c0-1.8-0.9-2.7-2.4-3.2c0.9-0.5,1.7-1.3,1.7-2.8v0c0-0.9-0.3-1.6-0.9-2.2
	c-0.7-0.7-1.9-1.2-3.4-1.2h-6.1v13h6.2C38.3,19.6,40.2,18.4,40.2,16.1z M31.9,9.1h2.8c1.2,0,1.9,0.5,1.9,1.3v0c0,1-0.8,1.4-2.1,1.4
	h-2.6V9.1z M31.9,14.3h3.3c1.5,0,2.1,0.5,2.1,1.4v0c0,1-0.8,1.4-2,1.4h-3.4V14.3z"/>
<path class="st2" d="M53.6,16.1L53.6,16.1c0-1.8-0.9-2.7-2.4-3.2c0.9-0.5,1.7-1.3,1.7-2.8v0c0-0.9-0.3-1.6-0.9-2.2
	c-0.7-0.7-1.9-1.2-3.4-1.2h-6.1v13h6.2C51.7,19.6,53.6,18.4,53.6,16.1z M45.4,9.1h2.8c1.2,0,1.9,0.5,1.9,1.3v0c0,1-0.8,1.4-2.1,1.4
	h-2.6V9.1z M45.4,14.3h3.3c1.5,0,2.1,0.5,2.1,1.4v0c0,1-0.8,1.4-2,1.4h-3.4V14.3z"/>
<rect x="56" y="6.6" class="st2" width="2.9" height="13"/>
<polygon class="st2" points="69.4,11.8 64.1,11.8 64.1,6.6 61.2,6.6 61.2,19.6 64.1,19.6 64.1,14.4 69.4,14.4 69.4,19.6 72.3,19.6 
	72.3,6.6 69.4,6.6 "/>
<path class="st2" d="M51.7,38.9h1.1v0.9c-0.2,0.2-0.6,0.4-1,0.4c-0.9,0-1.4-0.6-1.4-1.5v0c0-0.8,0.6-1.5,1.4-1.5
	c0.5,0,0.8,0.2,1.1,0.4l0.3-0.3c-0.4-0.3-0.7-0.5-1.3-0.5c-1.1,0-1.8,0.9-1.8,1.9v0c0,1,0.7,1.8,1.8,1.8c0.6,0,1.1-0.3,1.4-0.5v-1.4
	h-1.5V38.9z"/>
<path class="st2" d="M55.3,38.5c-0.8-0.2-1-0.4-1-0.7v0c0-0.3,0.3-0.6,0.8-0.6c0.4,0,0.7,0.1,1,0.4l0.2-0.3
	c-0.4-0.3-0.7-0.4-1.3-0.4c-0.7,0-1.2,0.4-1.2,1v0c0,0.6,0.4,0.9,1.2,1c0.8,0.2,0.9,0.3,0.9,0.7v0c0,0.4-0.3,0.6-0.8,0.6
	c-0.5,0-0.9-0.2-1.2-0.5l-0.3,0.3c0.4,0.4,0.9,0.6,1.5,0.6c0.7,0,1.2-0.4,1.2-1v0C56.5,38.9,56.1,38.6,55.3,38.5z"/>
<polygon class="st2" points="48.6,39.7 46.4,36.9 46,36.9 46,40.5 46.4,40.5 46.4,37.5 48.7,40.5 49,40.5 49,36.9 48.6,36.9 "/>
<polygon class="st2" points="37.8,36.9 37.4,36.9 37.4,40.5 39.8,40.5 39.8,40.1 37.8,40.1 "/>
<polygon class="st2" points="31.6,38.5 29.5,38.5 29.5,36.9 29.1,36.9 29.1,40.5 29.5,40.5 29.5,38.8 31.6,38.8 31.6,40.5 32,40.5 
	32,36.9 31.6,36.9 "/>
<path class="st2" d="M34.7,36.8c-1.1,0-1.8,0.9-1.8,1.9v0c0,1,0.7,1.8,1.8,1.8c1.1,0,1.8-0.9,1.8-1.9c0,0,0,0,0,0
	C36.5,37.7,35.8,36.8,34.7,36.8z M36.1,38.7c0,0.8-0.6,1.5-1.4,1.5s-1.4-0.7-1.4-1.5v0c0-0.8,0.6-1.5,1.4-1.5
	C35.5,37.2,36.1,37.9,36.1,38.7L36.1,38.7z"/>
<rect x="44.5" y="36.9" class="st2" width="0.4" height="3.6"/>
<path class="st2" d="M41.8,36.9h-1.2v3.6h1.2c1.1,0,1.9-0.8,1.9-1.8v0C43.7,37.7,42.9,36.9,41.8,36.9z M43.2,38.7
	c0,0.8-0.6,1.4-1.5,1.4h-0.8v-2.8h0.8C42.7,37.3,43.2,37.9,43.2,38.7L43.2,38.7z"/>
<polygon class="st2" points="70.2,31.1 69.8,31.1 69.8,34.7 72.3,34.7 72.3,34.3 70.2,34.3 "/>
<polygon class="st2" points="48,34.7 48,31.1 47.7,31.1 47.7,34 45.4,31.1 45,31.1 45,34.7 45.4,34.7 45.4,31.8 47.7,34.7 "/>
<path class="st2" d="M67.1,31.1l-1.6,3.6h0.4l0.4-0.9h1.9l0.4,0.9h0.4l-1.6-3.6H67.1z M66.5,33.4l0.8-1.8l0.8,1.8H66.5z"/>
<rect x="56" y="31.1" class="st2" width="0.4" height="3.6"/>
<polygon class="st2" points="34.3,31.5 35.5,31.5 35.5,34.7 36,34.7 36,31.5 37.2,31.5 37.2,31.1 34.3,31.1 "/>
<polygon class="st2" points="40.5,31.5 40.5,31.1 37.9,31.1 37.9,34.7 40.5,34.7 40.5,34.3 38.3,34.3 38.3,33.1 40.3,33.1 
	40.3,32.7 38.3,32.7 38.3,31.5 "/>
<polygon class="st2" points="31,31.8 33.3,34.7 33.6,34.7 33.6,31.1 33.2,31.1 33.2,34 30.9,31.1 30.6,31.1 30.6,34.7 31,34.7 "/>
<path class="st2" d="M44.2,32.2L44.2,32.2c0-0.3-0.1-0.5-0.3-0.7c-0.2-0.2-0.6-0.4-1-0.4h-1.5v3.6h0.4v-1.4h1h0l1,1.4h0.5l-1.1-1.5
	C43.8,33.1,44.2,32.8,44.2,32.2z M41.7,33v-1.5h1.1c0.6,0,0.9,0.3,0.9,0.7v0c0,0.5-0.4,0.7-0.9,0.7H41.7z"/>
<path class="st2" d="M52,34.7h0.4l-1.6-3.6h-0.4l-1.6,3.6h0.4l0.4-0.9h1.9L52,34.7z M49.7,33.4l0.8-1.8l0.8,1.8H49.7z"/>
<polygon class="st2" points="54,34.7 54,31.5 55.2,31.5 55.2,31.1 52.4,31.1 52.4,31.5 53.6,31.5 53.6,34.7 "/>
<polygon class="st2" points="64.4,34 62.1,31.1 61.8,31.1 61.8,34.7 62.2,34.7 62.2,31.8 64.5,34.7 64.8,34.7 64.8,31.1 64.4,31.1 
	"/>
<path class="st2" d="M59.1,31.1c-1.1,0-1.8,0.9-1.8,1.9v0c0,1,0.7,1.8,1.8,1.8s1.8-0.9,1.8-1.9c0,0,0,0,0,0
	C60.9,31.9,60.2,31.1,59.1,31.1z M60.5,32.9c0,0.8-0.6,1.5-1.4,1.5c-0.8,0-1.4-0.7-1.4-1.5v0c0-0.8,0.6-1.5,1.4-1.5
	S60.5,32.1,60.5,32.9L60.5,32.9z"/>
<rect x="29.1" y="31.1" class="st2" width="0.4" height="3.6"/>
<rect x="54.3" y="25.4" class="st2" width="0.8" height="3.6"/>
<polygon class="st2" points="52.6,29 52.6,26.1 53.7,26.1 53.7,25.4 50.7,25.4 50.7,26.1 51.8,26.1 51.8,29 "/>
<path class="st2" d="M32,26.3L32,26.3c0-0.3-0.1-0.5-0.2-0.6c-0.2-0.2-0.5-0.3-0.9-0.3h-1.7V29h1.7c0.8,0,1.3-0.3,1.3-1v0
	c0-0.5-0.3-0.7-0.7-0.9C31.7,26.9,32,26.7,32,26.3z M29.9,26.1h0.8c0.3,0,0.5,0.1,0.5,0.4v0c0,0.3-0.2,0.4-0.6,0.4h-0.7V26.1z
	 M31.4,27.9c0,0.3-0.2,0.4-0.6,0.4h-0.9v-0.8h0.9C31.2,27.5,31.4,27.6,31.4,27.9L31.4,27.9z"/>
<rect x="32.8" y="25.4" class="st2" width="0.8" height="3.6"/>
<polygon class="st2" points="35.2,25.4 34.5,25.4 34.5,29 35.3,29 35.3,26.7 37,29 37.7,29 37.7,25.4 36.9,25.4 36.9,27.6 "/>
<path class="st2" d="M40.1,29h1.7c0.8,0,1.3-0.3,1.3-1v0c0-0.5-0.3-0.7-0.7-0.9c0.3-0.1,0.5-0.4,0.5-0.8v0c0-0.2-0.1-0.4-0.2-0.6
	c-0.2-0.2-0.5-0.3-0.9-0.3h-1.7V29z M40.9,26.1h0.8c0.3,0,0.5,0.1,0.5,0.4v0c0,0.3-0.2,0.4-0.6,0.4h-0.7V26.1z M40.9,27.5h0.9
	c0.4,0,0.6,0.1,0.6,0.4v0c0,0.3-0.2,0.4-0.6,0.4h-0.9V27.5z"/>
<polygon class="st2" points="49.3,29 49.3,26.1 50.4,26.1 50.4,25.4 47.4,25.4 47.4,26.1 48.5,26.1 48.5,29 "/>
<path class="st2" d="M43.7,25.4v2c0,1.1,0.6,1.6,1.5,1.6c1,0,1.6-0.5,1.6-1.6v-2h-0.8v2.1c0,0.6-0.3,0.9-0.8,0.9
	c-0.5,0-0.8-0.3-0.8-0.9v-2H43.7z"/>
</svg>
